# xmcd
#
# Track frame offsets: 
#        150
#        6209
#        15763
#        16829
#        38491
#        47530
#        64131
#        76047
#        77910
#        101103
#        102469
#        131641
#        143624
#        157365
#        162757
#        182254
#        183423
#        196326
#        204619
#        207446
#        218207
#        219793
#        232804
#        237664
#        250396
#        253995
#        267250
#        288812
#        290777
#        300627
#        303830
#        330049
#        331890
#        344031
#
# Disc length: 4741 seconds
#
# Revision: 0
# Processed by: cddbd v1.5.2PL0 Copyright (c) Steve Scherf et al.
# Submitted via: ExactAudioCopy v0.99pb5
#
DISCID=dd128322
DTITLE=Handel George Frideric - Solomon - Salomon cd2
DYEAR=2006
DGENRE=Classique
TTITLE0=Part II - Scene 3 - Recitative - What says the other (Solomon/
TTITLE0=Second woman)
TTITLE1=Part II - Scene 3 - Air - Thy sentence, great king (Second wom
TTITLE1=an)
TTITLE2=Part II - Scene 3 - Recitative - Withhold the executing hand (
TTITLE2=First woman)
TTITLE3=Part II - Scene 3 - Air - Can I see my infant gor'd (First wom
TTITLE3=an)
TTITLE4=Part II - Scene 3 - Accompagnato - Israel, attend (Solomon)
TTITLE5=Part II - Scene 3 - Duet - Trice bless'd be the king (First wo
TTITLE5=man/Solomon)
TTITLE6=Part II - Scene 3 - Chorus of Israelites - From the east into 
TTITLE6=the west
TTITLE7=Part II - Scene 3 - Recitative - From morn to eve (Zadok)
TTITLE8=Part II - Scene 3 - Air - See the tall Palm (Zadok)
TTITLE9=Part II - Scene 3 - Recitative - No more shall armed bands (Fi
TTITLE9=rst woman)
TTITLE10=Part II - Scene 3 - Air - Beneath the vine (First woman)
TTITLE11=Part II - Scene 3 - Chorus of Priests - Swell the full chorus
TTITLE12=Part III - Scene 1 - Sinfonia
TTITLE13=Part III - Scene 1 - Recitative - From Arabia's spicy shores 
TTITLE13=(Queen of Sheeba/Solomon)
TTITLE14=Part III - Scene 1 - Air - Ev'ry sight these eyes behold (Que
TTITLE14=en of Sheeba)
TTITLE15=Part III - Scene 1 - Recitative - Sweep the string (Solomon)
TTITLE16=Part III - Scene 1 - Air (Solomon) and Chorus - Music, spread t
TTITLE16=hy voice around
TTITLE17=Part III - Scene 1 - Air (Solomon) and Chorus - Now a diff'rent
TTITLE17=measure try
TTITLE18=Part III - Scene 1 - Recitative - Then at once (Solomon)
TTITLE19=Part III - Scene 1 - Chorus - Draw the tear from hopeless lov
TTITLE19=e
TTITLE20=Part III - Scene 1 - Recitative - Next the tortur'd soul rele
TTITLE20=ase (Solomon)
TTITLE21=Part III - Scene 1 - Air (Solomon) and Chorus - Thus rolling su
TTITLE21=rges rise
TTITLE22=Part III - Scene 1 - Recitative - Thy Harmony's divine (Queen
TTITLE22=of Sheeba)
TTITLE23=Part III - Scene 1 - Air - Pious king, and virtuous queen (Le
TTITLE23=vite)
TTITLE24=Part III - Scene 1 - Recitative - Thrice happy king (Zadok)
TTITLE25=Part III - Scene 1 - Air - Golden columns, fair and bright (Z
TTITLE25=adok)
TTITLE26=Part III - Scene 1 - Chorus - Praise the Lord
TTITLE27=Part III - Scene 1 - Recitative - Gold now is common (Solomon
TTITLE27=)
TTITLE28=Part III - Scene 1 - Air - How green our fertile pastures loo
TTITLE28=k (Solomon)
TTITLE29=Part III - Scene 1 - Recitative - May peace in Salem ever dwe
TTITLE29=ll (Queen of Sheeba)
TTITLE30=Part III - Scene 1 - Air - Will the sun forget to streak (Que
TTITLE30=en of Sheeba)
TTITLE31=Part III - Scene 1 - Recitative - Adieu, fair queen (Solomon)
TTITLE32=Part III - Scene 1 - Duet - Ev'ry joy, that wisdom knows (Sol
TTITLE32=omon/Queen of Sheeba)
TTITLE33=Part III - Scene 1 - Chorus - The name of the wicked
EXTD=
EXTT0=
EXTT1=
EXTT2=
EXTT3=
EXTT4=
EXTT5=
EXTT6=
EXTT7=
EXTT8=
EXTT9=
EXTT10=
EXTT11=
EXTT12=
EXTT13=
EXTT14=
EXTT15=
EXTT16=
EXTT17=
EXTT18=
EXTT19=
EXTT20=
EXTT21=
EXTT22=
EXTT23=
EXTT24=
EXTT25=
EXTT26=
EXTT27=
EXTT28=
EXTT29=
EXTT30=
EXTT31=
EXTT32=
EXTT33=
PLAYORDER=
